<svg width="12" height="18" viewBox="0 0 12 18" fill="none" xmlns="http://www.w3.org/2000/svg">
<path d="M6 8.56C6.37333 8.56 6.72 8.46667 7.04 8.28C7.36 8.09333 7.61333 7.84667 7.8 7.54C7.98667 7.22 8.08 6.87333 8.08 6.5C8.08 6.12667 7.98667 5.78 7.8 5.46C7.61333 5.14 7.36 4.88667 7.04 4.7C6.72 4.51333 6.37333 4.42 6 4.42C5.62667 4.42 5.28 4.51333 4.96 4.7C4.65333 4.88667 4.40667 5.14 4.22 5.46C4.03333 5.78 3.94 6.12667 3.94 6.5C3.94 7.07333 4.14 7.56 4.54 7.96C4.94 8.36 5.42667 8.56 6 8.56ZM6 0.679999C7.06667 0.679999 8.04667 0.939999 8.94 1.46C9.82 1.98 10.52 2.68 11.04 3.56C11.56 4.45333 11.82 5.43333 11.82 6.5C11.82 7.31333 11.62 8.24667 11.22 9.3C10.8733 10.1933 10.3933 11.16 9.78 12.2C9.27333 13.0267 8.69333 13.8867 8.04 14.78C7.58667 15.4067 7.10667 16.02 6.6 16.62L6 17.32L5.4 16.62C4.89333 16.02 4.41333 15.4067 3.96 14.78C3.30667 13.8867 2.72667 13.0267 2.22 12.2C1.60667 11.16 1.12667 10.1933 0.78 9.3C0.38 8.24667 0.18 7.31333 0.18 6.5C0.18 5.43333 0.44 4.45333 0.96 3.56C1.48 2.68 2.18 1.98 3.06 1.46C3.95333 0.939999 4.93333 0.679999 6 0.679999Z" fill="white"/>
</svg>
